<?xml version="1.0" encoding="UTF-8" standalone="no"?>
<svg
   xmlns:dc="http://purl.org/dc/elements/1.1/"
   xmlns:cc="http://creativecommons.org/ns#"
   xmlns:rdf="http://www.w3.org/1999/02/22-rdf-syntax-ns#"
   xmlns:svg="http://www.w3.org/2000/svg"
   xmlns="http://www.w3.org/2000/svg"
   xmlns:sodipodi="http://sodipodi.sourceforge.net/DTD/sodipodi-0.dtd"
   xmlns:inkscape="http://www.inkscape.org/namespaces/inkscape"
   id="svg8"
   version="1.1"
   viewBox="0 0 135.46666 135.46667"
   height="512"
   width="512"
   sodipodi:docname="icon.svg"
   inkscape:version="0.92.4 5da689c313, 2019-01-14"
   inkscape:export-filename="/home/roger/Projects/rmp-portfolio/assets/icon.png"
   inkscape:export-xdpi="96.379997"
   inkscape:export-ydpi="96.379997">
  <sodipodi:namedview
     pagecolor="#ffffff"
     bordercolor="#666666"
     borderopacity="1"
     objecttolerance="10"
     gridtolerance="10"
     guidetolerance="10"
     inkscape:pageopacity="0"
     inkscape:pageshadow="2"
     inkscape:window-width="1272"
     inkscape:window-height="931"
     id="namedview10"
     showgrid="false"
     inkscape:zoom="0.921875"
     inkscape:cx="204.07222"
     inkscape:cy="226.80445"
     inkscape:window-x="4"
     inkscape:window-y="25"
     inkscape:window-maximized="0"
     inkscape:current-layer="layer1" />
  <defs
     id="defs2" />
  <metadata
     id="metadata5">
    <rdf:RDF>
      <cc:Work
         rdf:about="">
        <dc:format>image/svg+xml</dc:format>
        <dc:type
           rdf:resource="http://purl.org/dc/dcmitype/StillImage" />
        <dc:title></dc:title>
      </cc:Work>
    </rdf:RDF>
  </metadata>
  <g
     transform="translate(0,-161.53332)"
     id="layer1">
    <rect
       style="fill:none;stroke:#552200;stroke-width:7.83164215;stroke-miterlimit:4;stroke-dasharray:none;stroke-opacity:1"
       y="165.71373"
       x="4.1803961"
       height="127.10586"
       width="127.10587"
       id="rect10" />
    <g
       id="g850"
       transform="translate(1.0240005,2.2790675)"
       style="fill:#552200">
      <g
         id="text820"
         style="font-style:normal;font-variant:normal;font-weight:bold;font-stretch:normal;font-size:50.79999924px;line-height:1.25;font-family:'Droid Sans';-inkscape-font-specification:'Droid Sans Bold';letter-spacing:0px;word-spacing:0px;fill:#552200;fill-opacity:1;stroke:none;stroke-width:0.26458332"
         aria-label="R">
        <path
           inkscape:connector-curvature="0"
           id="path841"
           style="font-style:normal;font-variant:normal;font-weight:bold;font-stretch:normal;font-size:50.79999924px;font-family:'Droid Sans';-inkscape-font-specification:'Droid Sans Bold';fill:#552200;stroke-width:0.26458332"
           d="m 38.084027,224.9536 h 2.083593 q 3.199805,0 4.588867,-1.26504 1.389063,-1.28984 1.389063,-3.77031 0,-2.57969 -1.488281,-3.67109 -1.488282,-1.09141 -4.613672,-1.09141 h -1.95957 z m 0,6.25078 v 13.91543 h -7.689453 v -36.26445 h 9.921874 q 6.970117,0 10.293946,2.70371 3.323828,2.67891 3.323828,8.16074 0,1.86035 -0.496094,3.37344 -0.496094,1.51309 -1.339453,2.70371 -0.818555,1.16582 -1.909961,2.05879 -1.066602,0.86816 -2.257227,1.46348 2.753321,4.41523 4.936133,7.88789 0.942578,1.48828 1.810742,2.90215 0.892969,1.41386 1.5875,2.53007 0.694531,1.11621 1.141016,1.78594 l 0.421679,0.69453 h -8.532812 l -7.863086,-13.91543 z" />
      </g>
      <path
         d="M 69.355166,245.11981 64.046963,226.1525 h -0.148828 q 0.09922,1.52135 0.165364,2.94348 0.03307,0.61185 0.04961,1.25678 0.03307,0.64492 0.04961,1.2733 0.03307,0.62839 0.03307,1.20716 0.01654,0.57878 0.01654,1.0418 v 11.24479 h -4.580598 v -24.1763 h 6.978385 l 5.22552,18.48776 h 0.09922 l 5.55625,-18.48776 h 6.978385 v 24.1763 h -4.779036 v -11.44323 q 0,-0.42994 0,-0.97565 0.01654,-0.5457 0.03307,-1.15755 0.01654,-0.61185 0.03307,-1.24023 0.03307,-0.62839 0.04961,-1.2237 0.06615,-1.38906 0.115755,-2.89388 h -0.132292 l -5.721614,18.93424 z"
         style="font-style:normal;font-variant:normal;font-weight:600;font-stretch:normal;font-size:33.86666489px;line-height:1.25;font-family:'Droid Sans';-inkscape-font-specification:'Droid Sans Semi-Bold';letter-spacing:-2.64583325px;word-spacing:0px;fill:#552200;fill-opacity:1;stroke:none;stroke-width:0.26458332"
         id="path836"
         inkscape:connector-curvature="0" />
      <path
         d="m 92.457298,232.32059 h 1.008724 q 2.166276,0 3.257682,-0.85989 1.107943,-0.8599 1.107943,-2.79466 0,-1.80248 -0.992187,-2.66237 -0.975651,-0.8599 -3.075781,-0.8599 h -1.306381 z m 10.566792,-3.83645 q 0,1.5875 -0.47956,3.0427 -0.47955,1.45521 -1.5875,2.56315 -1.091397,1.10795 -2.893873,1.76941 -1.785937,0.66145 -4.43177,0.66145 h -1.174089 v 8.59896 h -5.126301 v -24.1763 h 6.713801 q 2.331641,0 4.018359,0.52917 1.703256,0.51263 2.794653,1.48828 1.10795,0.95911 1.63711,2.36471 0.52917,1.38906 0.52917,3.15847 z"
         style="font-style:normal;font-variant:normal;font-weight:600;font-stretch:normal;font-size:33.86666489px;line-height:1.25;font-family:'Droid Sans';-inkscape-font-specification:'Droid Sans Semi-Bold';letter-spacing:-2.64583325px;word-spacing:0px;fill:#552200;fill-opacity:1;stroke:none;stroke-width:0.26458332"
         id="path838"
         inkscape:connector-curvature="0" />
    </g>
    <flowRoot
       xml:space="preserve"
       id="flowRoot828"
       style="fill:black;fill-opacity:1;stroke:none;font-family:sans-serif;font-style:normal;font-weight:normal;font-size:40px;line-height:1.25;letter-spacing:0px;word-spacing:0px"><flowRegion
         id="flowRegion830"><rect
           id="rect832"
           width="284.2034"
           height="206.1017"
           x="93.288139"
           y="149.69492" /></flowRegion><flowPara
         id="flowPara834"></flowPara></flowRoot>  </g>
</svg>
